# xmcd CD database file
#
# Track frame offsets:
#	150
#	15847
#	26669
#	41096
#	58025
#	75532
#	88233
#	103616
#	117777
#	128403
#	141145
#	158256
#	174476
#	191458
#
# Disc length: 2770 seconds
#
# Revision: 0
# Processed by: cddbd v1.5.2PL0 Copyright (c) Steve Scherf et al.
# Submitted via: CDex 1.51
#
DISCID=a10ad00e
DTITLE=SPECIAL 70 - GET UP AND DANCE nr.70
DYEAR=2009
DGENRE=Country
TTITLE0=P.Metelnick and A. Biggs - Anticipation
TTITLE1=Daniella Ten Berge - Da Doo Ron Ron
TTITLE2=Igor Gustmans - Lookin' Good
TTITLE3=Yvonne Krüger - Rock The Alligator
TTITLE4=Monika and Julia Oertel - Roof Top - Here I Go
TTITLE5=Allen Matthews - Heaven Can Wait
TTITLE6=Robbie McGowan Hickie - Still Waiting
TTITLE7=Petra and Georg Kiesewetter - Moscow A&O
TTITLE8=Julia Oertel - Come On - Get Rhythm!
TTITLE9=Chris Cleavely and Glyn Holt - Handsome Man
TTITLE10=Maggie Gallagher - J Ho
TTITLE11=Patrick Fleming, Bracken Ellis Potter and JP Potter - Hot and Hazy
TTITLE12=Mike and Jane Shopell - Honky Tonk Walkin'
TTITLE13=Raymond Lamarche - Let 'em Roll
EXTD=YEAR: 2009
EXTT0=
EXTT1=
EXTT2=
EXTT3=
EXTT4=
EXTT5=
EXTT6=
EXTT7=
EXTT8=
EXTT9=
EXTT10=
EXTT11=
EXTT12=
EXTT13=
PLAYORDER=
